<svg xmlns="http://www.w3.org/2000/svg" version="1.1" xmlns:xlink="http://www.w3.org/1999/xlink" xmlns:svgjs="http://svgjs.dev/svgjs" width="512" height="512"><svg version="1.0" xmlns="http://www.w3.org/2000/svg" viewBox="0 0 512.000000 512.000000" preserveAspectRatio="xMidYMid meet">
<metadata>
Created by potrace 1.16, written by Peter Selinger 2001-2019
</metadata>
<g transform="translate(0.000000,512.000000) scale(0.100000,-0.100000)" stroke="none">
<path d="M2518 4703 c23 -2 59 -2 80 0 20 2 1 4 -43 4 -44 0 -61 -2 -37 -4z"></path>
<path d="M2358 4693 c12 -2 30 -2 40 0 9 3 -1 5 -23 4 -22 0 -30 -2 -17 -4z"></path>
<path d="M2728 4693 c12 -2 32 -2 45 0 12 2 2 4 -23 4 -25 0 -35 -2 -22 -4z"></path>
<path d="M2278 4683 c6 -2 18 -2 25 0 6 3 1 5 -13 5 -14 0 -19 -2 -12 -5z"></path>
<path d="M2843 4683 c9 -2 23 -2 30 0 6 3 -1 5 -18 5 -16 0 -22 -2 -12 -5z"></path>
<path d="M2208 4673 c6 -2 18 -2 25 0 6 3 1 5 -13 5 -14 0 -19 -2 -12 -5z"></path>
<path d="M2463 4673 c37 -2 97 -2 135 0 37 2 6 3 -68 3 -74 0 -105 -1 -67 -3z"></path>
<path d="M2918 4673 c7 -3 16 -2 19 1 4 3 -2 6 -13 5 -11 0 -14 -3 -6 -6z"></path>
<path d="M2158 4663 c7 -3 16 -2 19 1 4 3 -2 6 -13 5 -11 0 -14 -3 -6 -6z"></path>
<path d="M2323 4663 c15 -2 37 -2 50 0 12 2 0 4 -28 4 -27 0 -38 -2 -22 -4z"></path>
<path d="M2693 4663 c15 -2 37 -2 50 0 12 2 0 4 -28 4 -27 0 -38 -2 -22 -4z"></path>
<path d="M2968 4663 c7 -3 16 -2 19 1 4 3 -2 6 -13 5 -11 0 -14 -3 -6 -6z"></path>
<path d="M2253 4653 c9 -2 23 -2 30 0 6 3 -1 5 -18 5 -16 0 -22 -2 -12 -5z"></path>
<path d="M2783 4653 c9 -2 25 -2 35 0 9 3 1 5 -18 5 -19 0 -27 -2 -17 -5z"></path>
<path d="M3008 4653 c7 -3 16 -2 19 1 4 3 -2 6 -13 5 -11 0 -14 -3 -6 -6z"></path>
<path d="M2086 4624 c-55 -13 -102 -27 -105 -31 -3 -3 8 -2 24 2 17 4 75 17
130 30 55 13 89 24 75 24 -14 0 -70 -11 -124 -25z"></path>
<path d="M2848 4643 c6 -2 18 -2 25 0 6 3 1 5 -13 5 -14 0 -19 -2 -12 -5z"></path>
<path d="M2898 4633 c6 -2 18 -2 25 0 6 3 1 5 -13 5 -14 0 -19 -2 -12 -5z"></path>
<path d="M3040 4591 c131 -47 317 -140 435 -218 108 -71 314 -241 371 -306 32
-36 45 -45 62 -40 12 3 22 9 22 13 0 24 -368 308 -499 386 -114 68 -253 132
-367 170 -137 46 -155 42 -24 -5z"></path>
<path d="M2150 4594 c-163 -34 -290 -71 -400 -117 -94 -38 -243 -117 -236
-124 10 -10 129 30 199 67 74 38 120 49 131 32 2 -4 -20 -20 -50 -36 -99 -52
-50 -37 77 23 68 32 135 62 149 66 13 4 36 16 50 26 24 18 87 36 203 59 31 6
57 16 57 21 0 15 -57 9 -180 -17z"></path>
<path d="M1887 4568 c-32 -11 -57 -22 -54 -24 2 -2 35 7 73 20 38 14 62 24 54
24 -8 0 -41 -9 -73 -20z"></path>
<path d="M2560 4578 c0 -7 3 -30 6 -50 l7 -38 72 0 73 0 7 -37 c3 -21 19 -51
33 -67 24 -25 25 -28 7 -24 -11 2 -19 10 -17 16 2 10 -46 12 -200 10 l-203 -3
-3 -30 -3 -30 208 0 c114 0 229 -3 256 -7 l47 -8 -16 25 c-17 26 -12 45 12 45
10 0 14 -12 14 -39 0 -37 2 -39 38 -45 65 -10 62 -16 62 109 l0 114 -52 16
c-79 23 -254 55 -304 55 -28 0 -44 -4 -44 -12z"></path>
<path d="M3241 4586 c2 -2 33 -18 69 -35 36 -18 56 -24 45 -15 -26 21 -135 69
-114 50z"></path>
<path d="M2182 4543 c-125 -30 -129 -43 -5 -15 155 35 153 35 153 7 0 -19 -7
-26 -27 -31 -140 -32 -260 -72 -347 -116 l-49 -25 47 -26 c45 -25 47 -25 76
-9 30 17 32 16 88 -13 56 -30 58 -30 117 -17 33 8 66 15 73 18 7 2 12 20 12
44 0 24 7 48 16 57 9 10 13 25 10 37 -3 12 -6 42 -6 69 0 45 -1 47 -27 46 -16
0 -74 -12 -131 -26z"></path>
<path d="M2990 4532 c0 -5 18 -14 40 -21 60 -18 285 -133 365 -187 39 -25 109
-77 157 -115 49 -38 94 -69 100 -69 7 0 49 -32 92 -70 43 -39 84 -70 89 -70 6
0 -3 10 -19 23 -17 12 -75 61 -130 108 -214 185 -418 313 -612 383 -82 29 -82
29 -82 18z"></path>
<path d="M1760 4520 c-8 -5 -10 -10 -5 -10 6 0 17 5 25 10 8 5 11 10 5 10 -5
0 -17 -5 -25 -10z"></path>
<path d="M1545 4431 c-3 -5 -2 -12 3 -15 5 -3 9 1 9 9 0 17 -3 19 -12 6z"></path>
<path d="M3485 4433 c20 -19 88 -57 81 -45 -4 7 -26 22 -49 33 -23 12 -37 17
-32 12z"></path>
<path d="M1516 4412 c-3 -5 1 -9 9 -9 8 0 12 4 9 9 -3 4 -7 8 -9 8 -2 0 -6 -4
-9 -8z"></path>
<path d="M3174 4304 c18 -62 56 -243 56 -271 l0 -32 -87 43 c-170 85 -347 126
-548 126 -242 0 -486 -67 -667 -183 l-55 -35 -68 68 -67 67 86 44 c47 24 86
47 86 51 0 11 -48 34 -98 48 l-44 11 -76 -57 c-42 -32 -116 -95 -163 -141 -65
-63 -90 -81 -106 -77 -16 5 -38 -19 -125 -133 -115 -152 -168 -238 -235 -378
-40 -86 -46 -94 -89 -112 l-45 -20 30 -13 c17 -6 36 -19 43 -28 9 -10 0 -8
-30 7 -53 27 -58 38 -37 86 8 21 13 40 10 43 -2 3 -9 -6 -14 -19 -5 -13 -18
-48 -30 -77 -33 -82 -43 -78 126 -55 38 5 41 7 27 20 -8 9 -14 25 -12 37 3 23
44 34 125 35 53 1 65 18 18 27 -42 7 -42 7 11 101 19 34 73 102 121 150 47 48
106 115 131 148 25 33 67 86 94 118 26 32 48 64 48 70 0 7 18 30 40 52 l39 38
40 -28 c70 -48 70 -48 9 -117 -177 -204 -323 -466 -408 -736 -29 -90 -35 -102
-55 -102 -21 0 -24 -9 -49 -137 -14 -76 -28 -169 -32 -206 -5 -50 -11 -70 -23
-75 -9 -3 -19 -10 -23 -16 -4 -6 -8 -95 -8 -198 l0 -188 38 0 37 0 0 184 c0
160 2 186 17 203 11 12 23 57 34 129 24 162 95 411 158 554 21 47 42 97 48
113 7 20 17 27 37 27 15 0 30 -2 33 -5 3 -3 -5 -40 -17 -83 -20 -70 -33 -138
-65 -337 -6 -38 -22 -133 -36 -210 -19 -109 -26 -189 -31 -357 l-6 -218 94 1
c52 1 85 3 74 6 -11 3 -24 9 -29 13 -27 26 -23 207 6 285 l12 35 38 -66 c25
-43 38 -78 38 -102 0 -20 3 -67 7 -104 l6 -68 90 0 90 0 -39 35 c-21 19 -34
34 -29 34 6 1 29 -17 53 -39 24 -22 44 -40 46 -40 1 0 38 -20 80 -44 43 -25
108 -57 145 -73 36 -15 75 -38 86 -50 24 -26 93 -63 117 -63 16 0 18 -12 18
-117 0 -161 18 -222 84 -288 56 -56 103 -75 183 -75 61 0 121 20 168 56 39 30
95 132 96 178 0 17 3 26 5 19 6 -13 59 -1 109 24 36 19 45 28 74 76 23 37 24
45 18 160 -6 122 -23 199 -53 245 -22 34 -77 84 -113 104 l-31 17 1 113 c1 62
3 106 6 97 2 -10 12 -19 21 -23 9 -3 57 -19 106 -35 49 -17 93 -28 96 -26 11
7 38 -99 51 -195 15 -112 6 -308 -21 -439 -55 -271 -164 -468 -296 -534 -79
-39 -192 -60 -268 -51 -46 7 -51 11 -107 83 -117 150 -183 227 -213 246 -17
11 -32 31 -34 43 -3 21 -7 22 -60 17 -55 -6 -521 -45 -533 -45 -22 0 -39 283
-20 332 5 14 24 31 41 38 39 16 45 9 55 -66 3 -30 11 -56 16 -60 13 -7 139 28
139 38 0 5 -4 8 -10 8 -17 0 -11 46 8 70 22 27 88 36 186 25 l66 -7 1 -101 c1
-56 5 -129 9 -162 5 -45 7 -19 9 107 1 156 0 168 -18 178 -13 6 -137 10 -336
10 l-316 0 6 -47 c4 -27 11 -72 16 -102 17 -102 26 -95 -112 -87 l-121 7 8
-23 c97 -314 318 -632 573 -823 151 -114 364 -211 546 -250 93 -20 325 -39
370 -31 34 7 35 8 35 56 0 59 3 60 117 59 l82 -2 -20 -50 c-11 -28 -23 -55
-25 -59 -3 -5 5 -4 18 1 13 5 70 24 128 41 58 18 155 57 217 87 74 36 127 56
155 57 54 3 80 -3 71 -17 -15 -24 61 38 156 129 82 78 261 283 261 298 0 2
-29 25 -66 52 l-65 48 25 13 c22 12 46 41 46 56 0 3 -20 18 -45 33 -42 27 -44
30 -29 51 8 13 12 23 9 23 -4 0 5 21 19 48 13 26 30 64 36 84 6 21 21 45 33
53 18 13 20 18 10 34 -8 13 -9 29 -2 52 36 130 71 295 78 363 12 117 13 285 2
331 -7 26 -6 44 1 52 28 34 -5 26 -77 -18 -43 -27 -84 -49 -90 -49 -5 0 -22
36 -36 81 l-25 81 35 28 c24 20 28 27 14 24 -14 -4 -32 4 -56 25 -19 17 -39
31 -43 31 -5 1 -21 18 -36 39 l-27 39 30 12 c16 7 45 10 64 7 31 -5 37 -2 79
48 l46 53 -35 120 c-19 66 -48 155 -65 198 -16 43 -30 87 -30 96 0 10 -5 18
-11 18 -5 0 -8 4 -5 9 4 5 3 11 -1 13 -5 1 -18 22 -31 46 l-23 42 36 21 c28
17 34 26 29 42 -9 29 -74 133 -123 198 -22 30 -41 59 -41 66 0 7 -14 28 -31
48 -17 19 -28 35 -25 35 10 0 -88 95 -114 112 -14 8 -32 27 -39 42 -13 24 -12
28 9 51 13 14 22 26 19 28 -2 2 -31 23 -64 47 -33 23 -66 50 -74 59 -12 14
-12 14 -7 -5z m-378 -189 c179 -32 371 -113 475 -202 118 -100 226 -251 289
-404 17 -39 30 -76 30 -80 0 -5 -49 -9 -109 -9 -133 0 -311 -17 -328 -32 -17
-14 -16 -14 -37 52 -53 166 -151 287 -286 353 -87 43 -152 57 -259 57 -383 0
-632 -352 -583 -824 34 -325 173 -499 451 -565 46 -11 123 -23 170 -26 47 -3
109 -8 136 -11 l50 -5 -3 -302 c-1 -166 -5 -312 -7 -324 -5 -21 -11 -23 -65
-23 -47 0 -60 3 -60 15 0 18 1 18 -45 -1 -41 -17 -126 -15 -132 3 -7 19 67 61
120 68 l47 7 0 52 c0 65 -25 115 -70 137 -20 10 -93 24 -174 34 -160 19 -276
50 -393 105 -251 117 -414 301 -485 546 -20 70 -23 100 -23 264 1 164 4 198
27 295 36 154 80 269 139 364 156 254 415 410 769 464 67 11 276 6 356 -8z
m662 -289 c13 -11 30 -33 38 -48 27 -51 -8 -30 -66 40 -45 55 -49 64 -25 48
17 -10 41 -28 53 -40z m-578 -246 c121 -24 108 -12 184 -160 51 -99 57 -106
103 -127 77 -35 138 -46 223 -41 l79 5 24 -65 24 -65 45 41 c25 23 50 42 56
42 6 0 21 -12 33 -27 l22 -28 -7 28 -7 29 28 -20 c54 -38 67 -60 71 -120 3
-44 0 -61 -12 -71 -22 -19 -31 -8 -45 54 -7 30 -15 55 -18 55 -3 0 -28 -20
-54 -45 -26 -25 -55 -45 -63 -45 -43 0 -126 26 -161 50 -120 82 -350 160 -515
175 -114 11 -158 18 -203 32 -85 28 -187 1 -249 -64 -37 -39 -68 -114 -75
-179 -3 -30 -9 -54 -13 -54 -12 0 -28 91 -24 146 4 61 24 109 74 176 40 54 77
75 160 90 113 21 233 -17 315 -99 25 -26 45 -41 45 -35 0 19 -93 94 -150 121
-48 22 -68 26 -155 26 -82 0 -109 -4 -147 -22 l-48 -22 23 31 c12 17 41 50 65
74 24 24 39 45 35 46 -32 6 107 12 165 6 94 -8 183 -50 260 -120 l57 -52 -49
52 c-82 85 -181 128 -341 145 l-30 3 30 13 c67 29 164 37 245 21z m-480 -233
c0 -2 -10 -12 -22 -23 l-23 -19 19 23 c18 21 26 27 26 19z m525 -162 c349 -56
581 -209 724 -477 80 -149 114 -309 114 -533 0 -407 -131 -720 -412 -986 -201
-191 -420 -290 -703 -320 -129 -14 -285 -2 -414 31 -177 46 -358 161 -467 295
-89 112 -211 394 -178 414 7 4 98 11 203 15 105 3 215 9 244 12 50 6 53 5 47
-14 -7 -26 29 -132 66 -197 89 -156 220 -235 385 -235 338 1 564 251 667 740
31 145 31 361 1 472 -63 231 -187 323 -491 363 -58 8 -109 15 -113 15 -5 0 -8
97 -8 217 l0 216 123 -7 c67 -3 163 -13 212 -21z m-638 -72 c-3 -10 -5 -4 -5
12 0 17 2 24 5 18 2 -7 2 -21 0 -30z m263 -33 l0 -60 -90 0 c-55 0 -90 4 -90
10 0 6 7 26 15 46 17 41 60 63 123 64 l42 0 0 -60z m0 -230 l0 -60 -71 0 -71
0 6 43 c3 23 5 47 5 54 1 12 30 19 94 22 l37 1 0 -60z m190 -277 l0 -83 -69 0
c-38 0 -77 3 -86 6 -32 13 -52 91 -33 128 17 32 26 35 110 33 l78 -2 0 -82z
m-351 -837 c60 -96 215 -100 293 -7 21 24 35 31 63 31 35 0 37 -1 30 -27 -10
-44 -52 -110 -84 -133 -101 -72 -240 -64 -323 17 -73 71 -95 200 -43 245 15
13 26 33 26 52 1 17 5 -8 9 -55 5 -64 13 -96 29 -123z m-879 -126 c18 -36 38
-72 45 -80 7 -8 31 -56 53 -107 78 -181 193 -322 344 -420 67 -44 196 -108
211 -105 4 1 7 -7 7 -17 0 -14 -6 -19 -20 -16 -11 2 -20 -1 -20 -7 0 -7 -4 -7
-13 1 -8 6 -16 9 -19 6 -6 -7 -218 99 -248 124 -14 11 -31 26 -39 33 -8 7 -20
15 -26 18 -23 10 -177 183 -250 282 -131 174 -226 376 -205 432 5 15 22 31 37
36 16 6 35 14 43 19 12 6 20 -6 41 -63 14 -39 41 -100 59 -136z"></path>
<path d="M3671 3134 c0 -11 3 -14 6 -6 3 7 2 16 -1 19 -3 4 -6 -2 -5 -13z"></path>
<path d="M1528 4290 c-58 -10 -114 -48 -208 -142 l-73 -73 37 -3 c34 -3 44 3
110 66 40 38 98 88 129 112 32 23 57 44 57 46 0 2 -1 3 -2 3 -2 -1 -24 -5 -50
-9z"></path>
<path d="M1287 4247 c-26 -24 -47 -48 -47 -53 0 -4 23 14 50 41 46 46 54 55
47 55 -1 0 -24 -20 -50 -43z"></path>
<path d="M1299 4216 c-41 -35 -92 -83 -114 -106 l-40 -43 35 7 c19 4 37 12 39
19 2 6 27 36 55 67 28 30 64 70 80 88 46 49 26 38 -55 -32z"></path>
<path d="M3748 4273 c7 -3 16 -2 19 1 4 3 -2 6 -13 5 -11 0 -14 -3 -6 -6z"></path>
<path d="M1578 4205 c-27 -20 -48 -37 -48 -40 0 -4 63 38 109 72 2 2 0 3 -5 3
-5 0 -30 -16 -56 -35z"></path>
<path d="M1925 4190 c-3 -6 1 -7 9 -4 18 7 21 14 7 14 -6 0 -13 -4 -16 -10z"></path>
<path d="M1165 4133 l-48 -58 56 55 c32 30 57 56 57 57 0 14 -24 -6 -65 -54z"></path>
<path d="M3917 4125 c69 -79 101 -110 108 -104 2 3 -35 43 -82 90 l-87 84 61
-70z"></path>
<path d="M1489 4133 l-24 -28 28 24 c25 23 32 31 24 31 -2 0 -14 -12 -28 -27z"></path>
<path d="M4005 4090 c38 -38 72 -70 74 -70 3 0 -26 32 -64 70 -38 39 -72 70
-74 70 -3 0 26 -31 64 -70z"></path>
<path d="M3508 4131 l-28 -17 36 -35 c90 -86 263 -325 347 -480 44 -81 124
-260 158 -354 l15 -40 62 -3 62 -3 -21 58 c-36 96 -152 333 -207 420 -28 45
-77 117 -110 160 -62 82 -271 314 -281 312 -3 0 -18 -8 -33 -18z"></path>
<path d="M1429 4083 c-13 -16 -12 -17 4 -4 16 13 21 21 13 21 -2 0 -10 -8 -17
-17z"></path>
<path d="M1088 3952 c-44 -18 -239 -324 -288 -452 -7 -19 -21 -43 -31 -52 -19
-19 -87 -214 -77 -223 3 -3 29 0 58 6 29 6 48 14 43 18 -5 3 -9 11 -8 18 0 15
25 41 26 27 0 -5 11 20 23 56 18 53 28 68 55 82 29 14 31 17 14 26 -17 10 -17
12 0 46 15 32 21 36 54 36 34 0 40 4 62 43 54 95 133 210 195 281 36 41 66 78
66 82 0 3 -28 4 -62 2 -58 -4 -64 -7 -101 -49 -104 -116 -218 -309 -197 -334
8 -10 5 -13 -15 -11 -17 1 -25 7 -25 19 0 45 127 250 214 345 36 39 34 50 -6
34z"></path>
<path d="M4070 3945 c0 -8 190 -255 196 -255 7 0 -52 85 -124 178 -59 76 -72
90 -72 77z"></path>
<path d="M965 3879 c-31 -34 -62 -73 -68 -86 -5 -12 -15 -23 -20 -23 -6 0 -8
-3 -4 -6 3 -3 -2 -15 -12 -25 -23 -25 -141 -276 -133 -283 3 -4 17 19 30 51
29 69 125 225 210 340 35 47 61 87 59 89 -2 3 -30 -23 -62 -57z"></path>
<path d="M3985 3909 c-27 -11 -53 -24 -58 -28 -4 -4 11 -32 34 -62 66 -88 138
-215 204 -359 l61 -135 41 -3 41 -3 -26 63 c-14 35 -28 80 -32 101 -6 32 -5
37 8 35 39 -8 163 -393 161 -501 0 -46 -3 -39 -24 62 -14 68 -30 120 -40 130
-16 15 -17 13 -12 -29 9 -76 38 -253 42 -260 2 -4 35 -10 72 -14 37 -3 78 -9
89 -12 23 -6 40 19 27 39 -5 7 -13 41 -19 77 l-11 65 -3 -50 -2 -50 -10 35
c-50 171 -66 220 -108 320 -27 63 -63 141 -80 172 l-31 58 -29 -15 c-16 -8
-33 -15 -37 -15 -4 0 -21 21 -37 46 -28 44 -29 47 -12 60 17 12 15 18 -33 96
-28 46 -51 90 -51 99 0 16 -58 99 -68 98 -4 0 -29 -9 -57 -20z m80 -150 c15
-28 11 -36 -11 -21 -14 9 -29 66 -14 57 5 -3 17 -19 25 -36z m442 -774 c4 -53
3 -67 -6 -59 -11 10 -52 220 -50 259 2 41 51 -133 56 -200z"></path>
<path d="M4250 3760 c12 -16 24 -30 26 -30 3 0 -4 14 -16 30 -12 17 -24 30
-26 30 -3 0 4 -13 16 -30z"></path>
<path d="M763 3633 c-91 -167 -237 -511 -202 -476 6 6 24 49 40 96 15 47 71
172 122 276 52 105 93 191 91 191 -1 0 -24 -39 -51 -87z"></path>
<path d="M4301 3690 c29 -45 29 -45 29 -34 0 5 -12 23 -26 39 l-26 30 23 -35z"></path>
<path d="M3670 3592 c0 -11 22 -32 32 -32 5 0 4 9 -2 20 -11 20 -30 28 -30 12z"></path>
<path d="M4350 3555 c0 -3 15 -36 34 -74 53 -104 115 -258 136 -336 10 -38 19
-61 19 -50 2 68 -153 465 -181 465 -4 0 -8 -2 -8 -5z"></path>
<path d="M4431 3485 c0 -5 6 -21 14 -35 8 -14 14 -20 14 -15 0 6 -6 21 -14 35
-8 14 -14 21 -14 15z"></path>
<path d="M679 3383 c-28 -65 -79 -192 -79 -198 0 -3 11 1 25 7 14 6 28 23 31
37 3 14 18 65 34 114 30 93 23 119 -11 40z"></path>
<path d="M4465 3401 c15 -48 35 -91 44 -91 4 0 -3 24 -17 53 -28 59 -38 73
-27 38z"></path>
<path d="M4586 3077 c3 -10 9 -15 12 -12 3 3 0 11 -7 18 -10 9 -11 8 -5 -6z"></path>
<path d="M4081 3058 c5 -59 10 -62 108 -73 51 -6 94 -8 96 -5 2 3 1 25 -2 48
l-6 42 -98 0 c-73 0 -99 -3 -98 -12z"></path>
<path d="M863 3043 c-57 -3 -73 -7 -77 -21 -9 -31 -34 -186 -40 -244 l-5 -58
52 0 52 0 3 48 c3 65 29 149 52 172 11 11 31 20 44 20 23 0 24 -3 19 -35 -5
-29 -1 -40 21 -62 23 -22 25 -28 12 -35 -9 -5 -17 -7 -19 -6 -9 8 -35 -31 -39
-60 -4 -32 -4 -32 36 -32 l41 0 3 53 c3 46 32 201 48 249 6 19 -7 20 -203 11z"></path>
<path d="M625 3007 l-49 -12 -19 -105 c-21 -115 -29 -429 -14 -552 7 -59 11
-68 29 -68 18 0 19 4 14 33 -4 17 -9 122 -12 232 -5 156 -3 225 10 314 9 63
19 118 23 122 10 9 114 31 120 25 2 -2 1 -15 -2 -29 -6 -22 -13 -26 -48 -29
-47 -3 -47 -4 -61 -155 l-7 -73 33 0 c22 0 29 3 20 9 -11 6 -12 24 -7 74 6 54
12 69 31 82 18 12 24 12 25 3 1 -16 28 100 29 125 0 20 -37 22 -115 4z"></path>
<path d="M522 2963 c-6 -2 -10 -8 -7 -13 2 -4 -2 -43 -10 -88 -22 -129 -28
-304 -15 -452 10 -121 20 -163 34 -149 3 3 0 36 -6 74 -19 120 -14 415 9 533
11 56 17 102 14 101 -3 0 -12 -3 -19 -6z"></path>
<path d="M3929 2908 c-3 -22 -1 -34 4 -29 5 5 7 21 5 37 -3 27 -4 26 -9 -8z"></path>
<path d="M4621 2924 c0 -11 3 -14 6 -6 3 7 2 16 -1 19 -3 4 -6 -2 -5 -13z"></path>
<path d="M4631 2854 c0 -11 3 -14 6 -6 3 7 2 16 -1 19 -3 4 -6 -2 -5 -13z"></path>
<path d="M4643 2755 c0 -22 2 -30 4 -17 2 12 2 30 0 40 -3 9 -5 -1 -4 -23z"></path>
<path d="M4636 2702 c-6 -10 -25 -11 -77 -6 l-69 7 0 -45 0 -45 52 -7 c28 -4
66 -13 85 -21 l33 -14 -1 42 c-2 62 -13 105 -23 89z"></path>
<path d="M4653 2475 c0 -44 2 -61 4 -37 2 23 2 59 0 80 -2 20 -4 1 -4 -43z"></path>
<path d="M690 2475 c0 -18 7 -26 24 -31 19 -4 25 -14 30 -47 3 -23 8 -63 12
-89 l6 -48 66 0 66 0 -22 20 c-17 16 -22 32 -21 68 1 56 17 107 18 57 1 -42
21 -109 35 -117 6 -4 21 -8 34 -8 21 0 22 3 22 110 l0 110 -135 0 -135 0 0
-25z"></path>
<path d="M4157 2403 c-3 -5 -14 -71 -26 -148 -30 -200 -80 -392 -139 -530 -48
-114 -49 -121 -34 -140 15 -17 15 -18 1 -7 -18 14 -32 2 -64 -55 -11 -19 -28
-33 -42 -35 -22 -3 -19 -7 26 -42 27 -22 47 -45 44 -50 -4 -8 -2 -8 5 -1 21
20 103 162 156 270 61 122 116 281 140 401 13 64 46 307 46 336 0 10 -107 10
-113 1z"></path>
<path d="M4444 2372 l-62 -3 -6 -37 c-10 -64 -13 -62 79 -62 70 0 87 -3 92
-17 17 -45 -69 -395 -134 -543 -37 -82 -130 -240 -138 -232 -5 4 -5 2 -2 -4 6
-11 -39 -79 -106 -159 -24 -28 -26 -45 -8 -45 20 0 183 253 252 391 82 165
164 431 170 559 2 25 8 58 14 73 7 16 10 39 7 52 -3 20 -11 24 -50 27 -26 1
-75 2 -108 0z"></path>
<path d="M4642 2320 c0 -14 2 -19 5 -12 2 6 2 18 0 25 -3 6 -5 1 -5 -13z"></path>
<path d="M4625 2240 c-4 -12 -5 -24 -2 -27 3 -2 8 5 12 17 4 12 5 24 2 27 -3
2 -8 -5 -12 -17z"></path>
<path d="M4612 2175 c0 -16 2 -22 5 -12 2 9 2 23 0 30 -3 6 -5 -1 -5 -18z"></path>
<path d="M4330 2108 c-40 -156 -56 -208 -80 -274 -21 -56 -25 -74 -14 -74 7 0
20 12 28 28 33 65 110 344 98 356 -13 14 -22 3 -32 -36z"></path>
<path d="M4449 2143 c-12 -3 -21 -28 -33 -87 -18 -90 -48 -189 -118 -386 -48
-133 -87 -217 -143 -305 -49 -77 -43 -78 16 -4 93 115 119 164 259 484 13 30
37 119 59 218 l19 87 -21 -1 c-12 -1 -29 -3 -38 -6z"></path>
<path d="M4600 2119 c0 -5 5 -7 10 -4 6 3 10 8 10 11 0 2 -4 4 -10 4 -5 0 -10
-5 -10 -11z"></path>
<path d="M4591 2054 c0 -11 3 -14 6 -6 3 7 2 16 -1 19 -3 4 -6 -2 -5 -13z"></path>
<path d="M551 2050 c-2 -36 76 -286 86 -276 2 2 -10 51 -27 108 -48 156 -58
184 -59 168z"></path>
<path d="M597 2053 c-7 -11 32 -137 39 -130 5 5 -16 107 -26 126 -4 8 -10 10
-13 4z"></path>
<path d="M703 2032 c23 -82 29 -125 18 -131 -23 -15 116 -359 178 -441 15 -19
22 -22 33 -13 9 8 19 9 28 2 13 -8 13 -10 1 -18 -18 -11 71 -38 171 -51 101
-13 108 -13 102 5 -4 10 -21 15 -53 15 -53 0 -62 6 -116 73 l-38 48 66 -7 c37
-4 67 -4 67 -1 0 4 -10 27 -22 52 -19 39 -26 45 -54 45 -17 0 -52 3 -77 6
l-46 7 54 -102 c56 -108 57 -106 -11 -80 -54 20 -204 308 -204 392 0 17 -7 57
-15 87 -8 30 -13 56 -11 58 11 10 57 -52 82 -112 l29 -69 55 -3 c30 -2 67 -6
82 -9 24 -4 26 -2 19 18 -6 16 -18 23 -44 25 -33 3 -37 7 -55 55 -26 70 -19
83 39 78 14 -2 15 4 10 31 -8 37 3 34 -214 52 -71 5 -78 4 -74 -12z"></path>
<path d="M1823 1946 c-13 -7 -34 -25 -47 -39 -23 -24 -32 -27 -98 -27 -56 0
-69 -3 -60 -12 8 -8 59 -12 162 -13 l150 0 0 53 0 52 -42 -1 c-24 -1 -53 -7
-65 -13z"></path>
<path d="M4526 1893 c-49 -165 -172 -401 -295 -566 -27 -38 -53 -77 -56 -87
-7 -21 -95 -96 -95 -81 0 6 3 11 8 11 4 0 20 17 37 37 l29 38 -44 -35 c-68
-52 -110 -92 -105 -100 5 -9 -107 -117 -175 -170 -61 -47 -31 -9 69 88 88 85
63 79 -36 -8 -37 -33 -73 -60 -79 -60 -7 0 -32 -15 -56 -33 -90 -69 -172 -120
-310 -193 -79 -41 -132 -72 -118 -69 23 7 24 6 9 -9 -8 -9 -25 -18 -36 -21
-27 -5 -62 -23 -87 -44 -12 -10 -16 -11 -12 -3 5 8 29 27 54 43 57 36 51 36
-24 3 -93 -41 -107 -46 -144 -49 -19 -1 -96 -13 -171 -26 -81 -13 -143 -19
-155 -14 -14 6 -4 11 43 20 35 6 66 15 70 20 5 4 -3 5 -17 2 -92 -22 -218 -29
-365 -22 -244 12 -241 11 -377 53 -115 35 -130 37 -149 24 -18 -12 -26 -12
-67 3 -134 51 -346 171 -456 259 -84 68 -99 72 -31 9 137 -126 405 -266 655
-343 l75 -23 -65 -13 c-213 -44 -111 -91 257 -119 422 -32 1004 -5 1116 52 23
11 26 17 17 33 -10 18 -53 31 -159 48 l-45 7 119 55 c193 89 521 294 496 310
-7 4 0 16 18 32 30 28 50 27 29 -1 -7 -9 0 -5 15 8 15 14 26 29 24 34 -4 12
123 140 131 132 3 -3 -23 -36 -59 -73 -54 -57 -56 -59 -10 -17 73 69 201 215
212 243 5 12 16 25 24 28 8 4 15 10 15 14 0 17 108 179 115 172 3 -4 6 -2 5 3
-5 22 1 36 12 29 7 -4 8 -3 4 4 -9 15 12 54 24 47 6 -4 7 1 3 11 -4 12 -3 15
5 10 8 -5 10 -1 5 10 -4 12 -3 15 5 10 11 -6 17 5 13 27 0 4 4 7 11 7 6 0 9 3
6 6 -4 3 7 30 23 61 16 30 26 59 23 64 -3 5 0 9 6 9 6 0 9 4 5 9 -3 5 -1 12 5
16 6 4 8 11 5 16 -4 5 -2 9 4 9 6 0 8 7 5 15 -4 8 -2 15 2 15 5 0 10 18 11 40
0 22 0 40 -1 40 -1 0 -10 -26 -20 -57z m-604 -915 c-7 -7 -12 -8 -12 -2 0 14
12 26 19 19 2 -3 -1 -11 -7 -17z m-152 -87 c0 -8 -151 -99 -292 -176 -47 -25
-68 -33 -68 -23 0 8 79 57 178 110 204 111 182 100 182 89z m-1562 -329 c2 -7
-3 -12 -12 -12 -9 0 -16 7 -16 16 0 17 22 14 28 -4z m499 -20 c6 -4 -76 -7
-182 -7 -106 0 -191 4 -188 8 6 9 355 8 370 -1z m-614 -19 c-7 -2 -19 -2 -25
0 -7 3 -2 5 12 5 14 0 19 -2 13 -5z"></path>
<path d="M690 1734 c0 -6 7 -19 16 -30 14 -18 14 -18 3 6 -14 31 -19 36 -19
24z"></path>
<path d="M730 1634 c0 -12 113 -210 127 -224 15 -14 -16 47 -89 178 -27 48
-38 61 -38 46z"></path>
<path d="M4125 1575 c-14 -25 -37 -66 -52 -92 -29 -53 -123 -193 -173 -260
-17 -24 -28 -43 -23 -43 26 0 146 117 196 192 54 82 137 226 137 241 0 4 -13
7 -30 7 -24 0 -33 -8 -55 -45z"></path>
<path d="M885 1360 c37 -66 313 -380 334 -380 3 0 -34 42 -83 92 -50 51 -125
138 -169 193 -85 107 -95 119 -82 95z"></path>
<path d="M952 1333 c6 -24 234 -276 317 -350 l86 -78 -110 115 c-120 126 -197
215 -190 221 2 2 -5 15 -16 29 -15 20 -18 21 -12 5 4 -12 -11 -1 -36 25 -23
25 -41 40 -39 33z"></path>
<path d="M1140 1255 c0 -20 82 -124 141 -181 69 -66 227 -193 255 -206 17 -8
30 -4 63 17 22 15 41 31 41 35 0 17 -76 64 -108 67 -23 3 -52 18 -81 42 -50
42 -152 147 -191 197 -20 25 -34 33 -72 37 -35 3 -48 1 -48 -8z"></path>
<path d="M3975 1180 c-27 -52 -12 -52 25 0 18 25 19 30 6 30 -9 0 -22 -13 -31
-30z"></path>
<path d="M3705 999 c-121 -109 -196 -167 -311 -236 -48 -29 -83 -53 -78 -53
18 0 168 91 243 147 67 50 264 233 251 232 -3 0 -50 -40 -105 -90z"></path>
<path d="M1624 875 l-38 -32 44 -29 c25 -15 93 -52 152 -81 l108 -54 30 23 31
22 92 -32 c262 -92 586 -116 847 -63 115 23 380 116 380 133 0 4 -32 -6 -72
-23 -39 -16 -117 -43 -172 -59 -404 -120 -897 -56 -1260 164 l-103 63 -39 -32z"></path>
<path d="M1420 846 c0 -2 8 -10 18 -17 15 -13 16 -12 3 4 -13 16 -21 21 -21
13z"></path>
<path d="M1470 806 c0 -2 8 -10 18 -17 15 -13 16 -12 3 4 -13 16 -21 21 -21
13z"></path>
</g>
</svg><style>@media (prefers-color-scheme: light) { :root { filter: none; } }
@media (prefers-color-scheme: dark) { :root { filter: none; } }
</style></svg>