<svg id="eBZEokAzNKd1" xmlns="http://www.w3.org/2000/svg" xmlns:xlink="http://www.w3.org/1999/xlink" viewBox="0 0 2400 512" shape-rendering="geometricPrecision" text-rendering="geometricPrecision" project-id="03e4f86998fc4b5eb734605df84122f7" export-id="c09baffc82af4b8a9eb1d33e2b80af49" cached="false"><g transform="matrix(.1 0 0-.1 0 512)"><path d="M2518,4703c23-2,59-2,80,0c20,2,1,4-43,4s-61-2-37-4Z"/><path d="M2358,4693c12-2,30-2,40,0c9,3-1,5-23,4-22,0-30-2-17-4Z"/><path d="M2728,4693c12-2,32-2,45,0c12,2,2,4-23,4s-35-2-22-4Z"/><path d="M2278,4683c6-2,18-2,25,0c6,3,1,5-13,5s-19-2-12-5Z"/><path d="M2843,4683c9-2,23-2,30,0c6,3-1,5-18,5-16,0-22-2-12-5Z"/><path d="M2208,4673c6-2,18-2,25,0c6,3,1,5-13,5s-19-2-12-5Z"/><path d="M2463,4673c37-2,97-2,135,0c37,2,6,3-68,3s-105-1-67-3Z" transform="translate(.000001 0)"/><path d="M2918,4673c7-3,16-2,19,1c4,3-2,6-13,5-11,0-14-3-6-6Z"/><path d="M2158,4663c7-3,16-2,19,1c4,3-2,6-13,5-11,0-14-3-6-6Z"/><path d="M2323,4663c15-2,37-2,50,0c12,2,0,4-28,4-27,0-38-2-22-4Z"/><path d="M2693,4663c15-2,37-2,50,0c12,2,0,4-28,4-27,0-38-2-22-4Z"/><path d="M2968,4663c7-3,16-2,19,1c4,3-2,6-13,5-11,0-14-3-6-6Z"/><path d="M2253,4653c9-2,23-2,30,0c6,3-1,5-18,5-16,0-22-2-12-5Z"/><path d="M2783,4653c9-2,25-2,35,0c9,3,1,5-18,5s-27-2-17-5Z"/><path d="M3008,4653c7-3,16-2,19,1c4,3-2,6-13,5-11,0-14-3-6-6Z"/><path d="M2086,4624c-55-13-102-27-105-31-3-3,8-2,24,2c17,4,75,17,130,30s89,24,75,24-70-11-124-25Z"/><path d="M2848,4643c6-2,18-2,25,0c6,3,1,5-13,5s-19-2-12-5Z"/><path d="M2898,4633c6-2,18-2,25,0c6,3,1,5-13,5s-19-2-12-5Z"/><path d="M3040,4591c131-47,317-140,435-218c108-71,314-241,371-306c32-36,45-45,62-40c12,3,22,9,22,13c0,24-368,308-499,386-114,68-253,132-367,170-137,46-155,42-24-5Z"/><path d="M2150,4594c-163-34-290-71-400-117-94-38-243-117-236-124c10-10,129,30,199,67c74,38,120,49,131,32c2-4-20-20-50-36-99-52-50-37,77,23c68,32,135,62,149,66c13,4,36,16,50,26c24,18,87,36,203,59c31,6,57,16,57,21c0,15-57,9-180-17Z"/><path d="M1887,4568c-32-11-57-22-54-24c2-2,35,7,73,20c38,14,62,24,54,24s-41-9-73-20Z"/><path d="M2560,4578c0-7,3-30,6-50l7-38h72h73l7-37c3-21,19-51,33-67c24-25,25-28,7-24-11,2-19,10-17,16c2,10-46,12-200,10l-203-3-3-30-3-30h208c114,0,229-3,256-7l47-8-16,25c-17,26-12,45,12,45c10,0,14-12,14-39c0-37,2-39,38-45c65-10,62-16,62,109v114l-52,16c-79,23-254,55-304,55-28,0-44-4-44-12Z" transform="translate(0 0.000001)"/><path d="M3241,4586c2-2,33-18,69-35c36-18,56-24,45-15-26,21-135,69-114,50Z"/><path d="M2182,4543c-125-30-129-43-5-15c155,35,153,35,153,7c0-19-7-26-27-31-140-32-260-72-347-116l-49-25l47-26c45-25,47-25,76-9c30,17,32,16,88-13c56-30,58-30,117-17c33,8,66,15,73,18c7,2,12,20,12,44s7,48,16,57c9,10,13,25,10,37s-6,42-6,69c0,45-1,47-27,46-16,0-74-12-131-26Z"/><path d="M2990,4532c0-5,18-14,40-21c60-18,285-133,365-187c39-25,109-77,157-115c49-38,94-69,100-69c7,0,49-32,92-70c43-39,84-70,89-70c6,0-3,10-19,23-17,12-75,61-130,108-214,185-418,313-612,383-82,29-82,29-82,18Z"/><path d="M1760,4520c-8-5-10-10-5-10c6,0,17,5,25,10s11,10,5,10c-5,0-17-5-25-10Z"/><path d="M1545,4431c-3-5-2-12,3-15s9,1,9,9c0,17-3,19-12,6Z" transform="translate(0 0.000001)"/><path d="M3485,4433c20-19,88-57,81-45-4,7-26,22-49,33-23,12-37,17-32,12Z"/><path d="M1516,4412c-3-5,1-9,9-9s12,4,9,9c-3,4-7,8-9,8s-6-4-9-8Z"/><path d="M3174,4304c18-62,56-243,56-271v-32l-87,43c-170,85-347,126-548,126-242,0-486-67-667-183l-55-35-68,68-67,67l86,44c47,24,86,47,86,51c0,11-48,34-98,48l-44,11-76-57c-42-32-116-95-163-141-65-63-90-81-106-77-16,5-38-19-125-133-115-152-168-238-235-378-40-86-46-94-89-112l-45-20l30-13c17-6,36-19,43-28c9-10,0-8-30,7-53,27-58,38-37,86c8,21,13,40,10,43-2,3-9-6-14-19s-18-48-30-77c-33-82-43-78,126-55c38,5,41,7,27,20-8,9-14,25-12,37c3,23,44,34,125,35c53,1,65,18,18,27-42,7-42,7,11,101c19,34,73,102,121,150c47,48,106,115,131,148s67,86,94,118c26,32,48,64,48,70c0,7,18,30,40,52l39,38l40-28c70-48,70-48,9-117-177-204-323-466-408-736-29-90-35-102-55-102-21,0-24-9-49-137-14-76-28-169-32-206-5-50-11-70-23-75-9-3-19-10-23-16s-8-95-8-198v-188h38h37v184c0,160,2,186,17,203c11,12,23,57,34,129c24,162,95,411,158,554c21,47,42,97,48,113c7,20,17,27,37,27c15,0,30-2,33-5s-5-40-17-83c-20-70-33-138-65-337-6-38-22-133-36-210-19-109-26-189-31-357l-6-218l94,1c52,1,85,3,74,6s-24,9-29,13c-27,26-23,207,6,285l12,35l38-66c25-43,38-78,38-102c0-20,3-67,7-104l6-68h90h90l-39,35c-21,19-34,34-29,34c6,1,29-17,53-39s44-40,46-40c1,0,38-20,80-44c43-25,108-57,145-73c36-15,75-38,86-50c24-26,93-63,117-63c16,0,18-12,18-117c0-161,18-222,84-288c56-56,103-75,183-75c61,0,121,20,168,56c39,30,95,132,96,178c0,17,3,26,5,19c6-13,59-1,109,24c36,19,45,28,74,76c23,37,24,45,18,160-6,122-23,199-53,245-22,34-77,84-113,104l-31,17l1,113c1,62,3,106,6,97c2-10,12-19,21-23c9-3,57-19,106-35c49-17,93-28,96-26c11,7,38-99,51-195c15-112,6-308-21-439-55-271-164-468-296-534-79-39-192-60-268-51-46,7-51,11-107,83-117,150-183,227-213,246-17,11-32,31-34,43-3,21-7,22-60,17-55-6-521-45-533-45-22,0-39,283-20,332c5,14,24,31,41,38c39,16,45,9,55-66c3-30,11-56,16-60c13-7,139,28,139,38c0,5-4,8-10,8-17,0-11,46,8,70c22,27,88,36,186,25l66-7l1-101c1-56,5-129,9-162c5-45,7-19,9,107c1,156,0,168-18,178-13,6-137,10-336,10h-316l6-47c4-27,11-72,16-102c17-102,26-95-112-87l-121,7l8-23c97-314,318-632,573-823c151-114,364-211,546-250c93-20,325-39,370-31c34,7,35,8,35,56c0,59,3,60,117,59l82-2-20-50c-11-28-23-55-25-59-3-5,5-4,18,1s70,24,128,41c58,18,155,57,217,87c74,36,127,56,155,57c54,3,80-3,71-17-15-24,61,38,156,129c82,78,261,283,261,298c0,2-29,25-66,52l-65,48l25,13c22,12,46,41,46,56c0,3-20,18-45,33-42,27-44,30-29,51c8,13,12,23,9,23-4,0,5,21,19,48c13,26,30,64,36,84c6,21,21,45,33,53c18,13,20,18,10,34-8,13-9,29-2,52c36,130,71,295,78,363c12,117,13,285,2,331-7,26-6,44,1,52c28,34-5,26-77-18-43-27-84-49-90-49-5,0-22,36-36,81l-25,81l35,28c24,20,28,27,14,24-14-4-32,4-56,25-19,17-39,31-43,31-5,1-21,18-36,39l-27,39l30,12c16,7,45,10,64,7c31-5,37-2,79,48l46,53-35,120c-19,66-48,155-65,198-16,43-30,87-30,96c0,10-5,18-11,18-5,0-8,4-5,9c4,5,3,11-1,13-5,1-18,22-31,46l-23,42l36,21c28,17,34,26,29,42-9,29-74,133-123,198-22,30-41,59-41,66s-14,28-31,48c-17,19-28,35-25,35c10,0-88,95-114,112-14,8-32,27-39,42-13,24-12,28,9,51c13,14,22,26,19,28-2,2-31,23-64,47-33,23-66,50-74,59-12,14-12,14-7-5Zm-378-189c179-32,371-113,475-202c118-100,226-251,289-404c17-39,30-76,30-80c0-5-49-9-109-9-133,0-311-17-328-32-17-14-16-14-37,52-53,166-151,287-286,353-87,43-152,57-259,57-383,0-632-352-583-824c34-325,173-499,451-565c46-11,123-23,170-26s109-8,136-11l50-5-3-302c-1-166-5-312-7-324-5-21-11-23-65-23-47,0-60,3-60,15c0,18,1,18-45-1-41-17-126-15-132,3-7,19,67,61,120,68l47,7v52c0,65-25,115-70,137-20,10-93,24-174,34-160,19-276,50-393,105-251,117-414,301-485,546-20,70-23,100-23,264c1,164,4,198,27,295c36,154,80,269,139,364c156,254,415,410,769,464c67,11,276,6,356-8Zm662-289c13-11,30-33,38-48c27-51-8-30-66,40-45,55-49,64-25,48c17-10,41-28,53-40Zm-578-246c121-24,108-12,184-160c51-99,57-106,103-127c77-35,138-46,223-41l79,5l24-65l24-65l45,41c25,23,50,42,56,42s21-12,33-27l22-28-7,28-7,29l28-20c54-38,67-60,71-120c3-44,0-61-12-71-22-19-31-8-45,54-7,30-15,55-18,55s-28-20-54-45-55-45-63-45c-43,0-126,26-161,50-120,82-350,160-515,175-114,11-158,18-203,32-85,28-187,1-249-64-37-39-68-114-75-179-3-30-9-54-13-54-12,0-28,91-24,146c4,61,24,109,74,176c40,54,77,75,160,90c113,21,233-17,315-99c25-26,45-41,45-35c0,19-93,94-150,121-48,22-68,26-155,26-82,0-109-4-147-22l-48-22l23,31c12,17,41,50,65,74s39,45,35,46c-32,6,107,12,165,6c94-8,183-50,260-120l57-52-49,52c-82,85-181,128-341,145l-30,3l30,13c67,29,164,37,245,21Zm-480-233c0-2-10-12-22-23l-23-19l19,23c18,21,26,27,26,19Zm525-162c349-56,581-209,724-477c80-149,114-309,114-533c0-407-131-720-412-986-201-191-420-290-703-320-129-14-285-2-414,31-177,46-358,161-467,295-89,112-211,394-178,414c7,4,98,11,203,15c105,3,215,9,244,12c50,6,53,5,47-14-7-26,29-132,66-197c89-156,220-235,385-235c338,1,564,251,667,740c31,145,31,361,1,472-63,231-187,323-491,363-58,8-109,15-113,15-5,0-8,97-8,217v216l123-7c67-3,163-13,212-21Zm-638-72c-3-10-5-4-5,12c0,17,2,24,5,18c2-7,2-21,0-30Zm263-33v-60h-90c-55,0-90,4-90,10s7,26,15,46c17,41,60,63,123,64h42v-60Zm0-230v-60h-71-71l6,43c3,23,5,47,5,54c1,12,30,19,94,22l37,1v-60Zm190-277v-83h-69c-38,0-77,3-86,6-32,13-52,91-33,128c17,32,26,35,110,33l78-2v-82Zm-351-837c60-96,215-100,293-7c21,24,35,31,63,31c35,0,37-1,30-27-10-44-52-110-84-133-101-72-240-64-323,17-73,71-95,200-43,245c15,13,26,33,26,52c1,17,5-8,9-55c5-64,13-96,29-123Zm-879-126c18-36,38-72,45-80s31-56,53-107c78-181,193-322,344-420c67-44,196-108,211-105c4,1,7-7,7-17c0-14-6-19-20-16-11,2-20-1-20-7c0-7-4-7-13,1-8,6-16,9-19,6-6-7-218,99-248,124-14,11-31,26-39,33s-20,15-26,18c-23,10-177,183-250,282-131,174-226,376-205,432c5,15,22,31,37,36c16,6,35,14,43,19c12,6,20-6,41-63c14-39,41-100,59-136Z"/><path d="M3671,3134c0-11,3-14,6-6c3,7,2,16-1,19-3,4-6-2-5-13Z"/><path d="M1528,4290c-58-10-114-48-208-142l-73-73l37-3c34-3,44,3,110,66c40,38,98,88,129,112c32,23,57,44,57,46s-1,3-2,3c-2-1-24-5-50-9Z" transform="translate(0 0.000001)"/><path d="M1287,4247c-26-24-47-48-47-53c0-4,23,14,50,41c46,46,54,55,47,55-1,0-24-20-50-43Z"/><path d="M1299,4216c-41-35-92-83-114-106l-40-43l35,7c19,4,37,12,39,19c2,6,27,36,55,67c28,30,64,70,80,88c46,49,26,38-55-32Z"/><path d="M3748,4273c7-3,16-2,19,1c4,3-2,6-13,5-11,0-14-3-6-6Z"/><path d="M1578,4205c-27-20-48-37-48-40c0-4,63,38,109,72c2,2,0,3-5,3s-30-16-56-35Z" transform="translate(0 0.000001)"/><path d="M1925,4190c-3-6,1-7,9-4c18,7,21,14,7,14-6,0-13-4-16-10Z"/><path d="M1165,4133l-48-58l56,55c32,30,57,56,57,57c0,14-24-6-65-54Z"/><path d="M3917,4125c69-79,101-110,108-104c2,3-35,43-82,90l-87,84l61-70Z"/><path d="M1489,4133l-24-28l28,24c25,23,32,31,24,31-2,0-14-12-28-27Z"/><path d="M4005,4090c38-38,72-70,74-70c3,0-26,32-64,70-38,39-72,70-74,70-3,0,26-31,64-70Z"/><path d="M3508,4131l-28-17l36-35c90-86,263-325,347-480c44-81,124-260,158-354l15-40l62-3l62-3-21,58c-36,96-152,333-207,420-28,45-77,117-110,160-62,82-271,314-281,312-3,0-18-8-33-18Z"/><path d="M1429,4083c-13-16-12-17,4-4s21,21,13,21c-2,0-10-8-17-17Z" transform="translate(.000001 0)"/><path d="M1088,3952c-44-18-239-324-288-452-7-19-21-43-31-52-19-19-87-214-77-223c3-3,29,0,58,6s48,14,43,18c-5,3-9,11-8,18c0,15,25,41,26,27c0-5,11,20,23,56c18,53,28,68,55,82c29,14,31,17,14,26-17,10-17,12,0,46c15,32,21,36,54,36c34,0,40,4,62,43c54,95,133,210,195,281c36,41,66,78,66,82c0,3-28,4-62,2-58-4-64-7-101-49-104-116-218-309-197-334c8-10,5-13-15-11-17,1-25,7-25,19c0,45,127,250,214,345c36,39,34,50-6,34Z"/><path d="M4070,3945c0-8,190-255,196-255c7,0-52,85-124,178-59,76-72,90-72,77Z"/><path d="M965,3879c-31-34-62-73-68-86-5-12-15-23-20-23-6,0-8-3-4-6c3-3-2-15-12-25-23-25-141-276-133-283c3-4,17,19,30,51c29,69,125,225,210,340c35,47,61,87,59,89-2,3-30-23-62-57Z"/><path d="M3985,3909c-27-11-53-24-58-28-4-4,11-32,34-62c66-88,138-215,204-359l61-135l41-3l41-3-26,63c-14,35-28,80-32,101-6,32-5,37,8,35c39-8,163-393,161-501c0-46-3-39-24,62-14,68-30,120-40,130-16,15-17,13-12-29c9-76,38-253,42-260c2-4,35-10,72-14c37-3,78-9,89-12c23-6,40,19,27,39-5,7-13,41-19,77l-11,65-3-50-2-50-10,35c-50,171-66,220-108,320-27,63-63,141-80,172l-31,58-29-15c-16-8-33-15-37-15s-21,21-37,46c-28,44-29,47-12,60c17,12,15,18-33,96-28,46-51,90-51,99c0,16-58,99-68,98-4,0-29-9-57-20Zm80-150c15-28,11-36-11-21-14,9-29,66-14,57c5-3,17-19,25-36Zm442-774c4-53,3-67-6-59-11,10-52,220-50,259c2,41,51-133,56-200Z"/><path d="M4250,3760c12-16,24-30,26-30c3,0-4,14-16,30-12,17-24,30-26,30-3,0,4-13,16-30Z"/><path d="M763,3633c-91-167-237-511-202-476c6,6,24,49,40,96c15,47,71,172,122,276c52,105,93,191,91,191-1,0-24-39-51-87Z"/><path d="M4301,3690c29-45,29-45,29-34c0,5-12,23-26,39l-26,30l23-35Z"/><path d="M3670,3592c0-11,22-32,32-32c5,0,4,9-2,20-11,20-30,28-30,12Z"/><path d="M4350,3555c0-3,15-36,34-74c53-104,115-258,136-336c10-38,19-61,19-50c2,68-153,465-181,465-4,0-8-2-8-5Z"/><path d="M4431,3485c0-5,6-21,14-35s14-20,14-15c0,6-6,21-14,35s-14,21-14,15Z"/><path d="M679,3383c-28-65-79-192-79-198c0-3,11,1,25,7s28,23,31,37s18,65,34,114c30,93,23,119-11,40Z"/><path d="M4465,3401c15-48,35-91,44-91c4,0-3,24-17,53-28,59-38,73-27,38Z"/><path d="M4586,3077c3-10,9-15,12-12s0,11-7,18c-10,9-11,8-5-6Z"/><path d="M4081,3058c5-59,10-62,108-73c51-6,94-8,96-5s1,25-2,48l-6,42h-98c-73,0-99-3-98-12Z"/><path d="M863,3043c-57-3-73-7-77-21-9-31-34-186-40-244l-5-58h52h52l3,48c3,65,29,149,52,172c11,11,31,20,44,20c23,0,24-3,19-35-5-29-1-40,21-62c23-22,25-28,12-35-9-5-17-7-19-6-9,8-35-31-39-60-4-32-4-32,36-32h41l3,53c3,46,32,201,48,249c6,19-7,20-203,11Z"/><path d="M625,3007l-49-12-19-105c-21-115-29-429-14-552c7-59,11-68,29-68s19,4,14,33c-4,17-9,122-12,232-5,156-3,225,10,314c9,63,19,118,23,122c10,9,114,31,120,25c2-2,1-15-2-29-6-22-13-26-48-29-47-3-47-4-61-155l-7-73h33c22,0,29,3,20,9-11,6-12,24-7,74c6,54,12,69,31,82c18,12,24,12,25,3c1-16,28,100,29,125c0,20-37,22-115,4Z"/><path d="M522,2963c-6-2-10-8-7-13c2-4-2-43-10-88-22-129-28-304-15-452c10-121,20-163,34-149c3,3,0,36-6,74-19,120-14,415,9,533c11,56,17,102,14,101-3,0-12-3-19-6Z"/><path d="M3929,2908c-3-22-1-34,4-29s7,21,5,37c-3,27-4,26-9-8Z"/><path d="M4621,2924c0-11,3-14,6-6c3,7,2,16-1,19-3,4-6-2-5-13Z"/><path d="M4631,2854c0-11,3-14,6-6c3,7,2,16-1,19-3,4-6-2-5-13Z"/><path d="M4643,2755c0-22,2-30,4-17c2,12,2,30,0,40-3,9-5-1-4-23Z"/><path d="M4636,2702c-6-10-25-11-77-6l-69,7v-45-45l52-7c28-4,66-13,85-21l33-14-1,42c-2,62-13,105-23,89Z"/><path d="M4653,2475c0-44,2-61,4-37c2,23,2,59,0,80-2,20-4,1-4-43Z"/><path d="M690,2475c0-18,7-26,24-31c19-4,25-14,30-47c3-23,8-63,12-89l6-48h66h66l-22,20c-17,16-22,32-21,68c1,56,17,107,18,57c1-42,21-109,35-117c6-4,21-8,34-8c21,0,22,3,22,110v110h-135-135v-25Z"/><path d="M4157,2403c-3-5-14-71-26-148-30-200-80-392-139-530-48-114-49-121-34-140c15-17,15-18,1-7-18,14-32,2-64-55-11-19-28-33-42-35-22-3-19-7,26-42c27-22,47-45,44-50-4-8-2-8,5-1c21,20,103,162,156,270c61,122,116,281,140,401c13,64,46,307,46,336c0,10-107,10-113,1Z"/><path d="M4444,2372l-62-3-6-37c-10-64-13-62,79-62c70,0,87-3,92-17c17-45-69-395-134-543-37-82-130-240-138-232-5,4-5,2-2-4c6-11-39-79-106-159-24-28-26-45-8-45c20,0,183,253,252,391c82,165,164,431,170,559c2,25,8,58,14,73c7,16,10,39,7,52-3,20-11,24-50,27-26,1-75,2-108,0Z"/><path d="M4642,2320c0-14,2-19,5-12c2,6,2,18,0,25-3,6-5,1-5-13Z"/><path d="M4625,2240c-4-12-5-24-2-27c3-2,8,5,12,17s5,24,2,27c-3,2-8-5-12-17Z"/><path d="M4612,2175c0-16,2-22,5-12c2,9,2,23,0,30-3,6-5-1-5-18Z"/><path d="M4330,2108c-40-156-56-208-80-274-21-56-25-74-14-74c7,0,20,12,28,28c33,65,110,344,98,356-13,14-22,3-32-36Z"/><path d="M4449,2143c-12-3-21-28-33-87-18-90-48-189-118-386-48-133-87-217-143-305-49-77-43-78,16-4c93,115,119,164,259,484c13,30,37,119,59,218l19,87-21-1c-12-1-29-3-38-6Z"/><path d="M4600,2119c0-5,5-7,10-4c6,3,10,8,10,11c0,2-4,4-10,4-5,0-10-5-10-11Z"/><path d="M4591,2054c0-11,3-14,6-6c3,7,2,16-1,19-3,4-6-2-5-13Z"/><path d="M551,2050c-2-36,76-286,86-276c2,2-10,51-27,108-48,156-58,184-59,168Z"/><path d="M597,2053c-7-11,32-137,39-130c5,5-16,107-26,126-4,8-10,10-13,4Z"/><path d="M703,2032c23-82,29-125,18-131-23-15,116-359,178-441c15-19,22-22,33-13c9,8,19,9,28,2c13-8,13-10,1-18-18-11,71-38,171-51c101-13,108-13,102,5-4,10-21,15-53,15-53,0-62,6-116,73l-38,48l66-7c37-4,67-4,67-1c0,4-10,27-22,52-19,39-26,45-54,45-17,0-52,3-77,6l-46,7l54-102c56-108,57-106-11-80-54,20-204,308-204,392c0,17-7,57-15,87s-13,56-11,58c11,10,57-52,82-112l29-69l55-3c30-2,67-6,82-9c24-4,26-2,19,18-6,16-18,23-44,25-33,3-37,7-55,55-26,70-19,83,39,78c14-2,15,4,10,31-8,37,3,34-214,52-71,5-78,4-74-12Z"/><path d="M1823,1946c-13-7-34-25-47-39-23-24-32-27-98-27-56,0-69-3-60-12c8-8,59-12,162-13h150v53v52l-42-1c-24-1-53-7-65-13Z"/><path d="M4526,1893c-49-165-172-401-295-566-27-38-53-77-56-87-7-21-95-96-95-81c0,6,3,11,8,11c4,0,20,17,37,37l29,38-44-35c-68-52-110-92-105-100c5-9-107-117-175-170-61-47-31-9,69,88c88,85,63,79-36-8-37-33-73-60-79-60-7,0-32-15-56-33-90-69-172-120-310-193-79-41-132-72-118-69c23,7,24,6,9-9-8-9-25-18-36-21-27-5-62-23-87-44-12-10-16-11-12-3c5,8,29,27,54,43c57,36,51,36-24,3-93-41-107-46-144-49-19-1-96-13-171-26-81-13-143-19-155-14-14,6-4,11,43,20c35,6,66,15,70,20c5,4-3,5-17,2-92-22-218-29-365-22-244,12-241,11-377,53-115,35-130,37-149,24-18-12-26-12-67,3-134,51-346,171-456,259-84,68-99,72-31,9c137-126,405-266,655-343l75-23-65-13c-213-44-111-91,257-119c422-32,1004-5,1116,52c23,11,26,17,17,33-10,18-53,31-159,48l-45,7l119,55c193,89,521,294,496,310-7,4,0,16,18,32c30,28,50,27,29-1-7-9,0-5,15,8c15,14,26,29,24,34-4,12,123,140,131,132c3-3-23-36-59-73-54-57-56-59-10-17c73,69,201,215,212,243c5,12,16,25,24,28c8,4,15,10,15,14c0,17,108,179,115,172c3-4,6-2,5,3-5,22,1,36,12,29c7-4,8-3,4,4-9,15,12,54,24,47c6-4,7,1,3,11-4,12-3,15,5,10s10-1,5,10c-4,12-3,15,5,10c11-6,17,5,13,27c0,4,4,7,11,7c6,0,9,3,6,6-4,3,7,30,23,61c16,30,26,59,23,64s0,9,6,9s9,4,5,9c-3,5-1,12,5,16s8,11,5,16c-4,5-2,9,4,9s8,7,5,15c-4,8-2,15,2,15c5,0,10,18,11,40c0,22,0,40-1,40s-10-26-20-57ZM3922,978c-7-7-12-8-12-2c0,14,12,26,19,19c2-3-1-11-7-17Zm-152-87c0-8-151-99-292-176-47-25-68-33-68-23c0,8,79,57,178,110c204,111,182,100,182,89ZM2208,562c2-7-3-12-12-12s-16,7-16,16c0,17,22,14,28-4Zm499-20c6-4-76-7-182-7s-191,4-188,8c6,9,355,8,370-1Zm-614-19c-7-2-19-2-25,0-7,3-2,5,12,5s19-2,13-5Z"/><path d="M690,1734c0-6,7-19,16-30c14-18,14-18,3,6-14,31-19,36-19,24Z"/><path d="M730,1634c0-12,113-210,127-224c15-14-16,47-89,178-27,48-38,61-38,46Z"/><path d="M4125,1575c-14-25-37-66-52-92-29-53-123-193-173-260-17-24-28-43-23-43c26,0,146,117,196,192c54,82,137,226,137,241c0,4-13,7-30,7-24,0-33-8-55-45Z"/><path d="M885,1360c37-66,313-380,334-380c3,0-34,42-83,92-50,51-125,138-169,193-85,107-95,119-82,95Z"/><path d="M952,1333c6-24,234-276,317-350l86-78-110,115c-120,126-197,215-190,221c2,2-5,15-16,29-15,20-18,21-12,5c4-12-11-1-36,25-23,25-41,40-39,33Z"/><path d="M1140,1255c0-20,82-124,141-181c69-66,227-193,255-206c17-8,30-4,63,17c22,15,41,31,41,35c0,17-76,64-108,67-23,3-52,18-81,42-50,42-152,147-191,197-20,25-34,33-72,37-35,3-48,1-48-8Z"/><path d="M3975,1180c-27-52-12-52,25,0c18,25,19,30,6,30-9,0-22-13-31-30Z"/><path d="M3705,999c-121-109-196-167-311-236-48-29-83-53-78-53c18,0,168,91,243,147c67,50,264,233,251,232-3,0-50-40-105-90Z"/><path d="M1624,875l-38-32l44-29c25-15,93-52,152-81l108-54l30,23l31,22l92-32c262-92,586-116,847-63c115,23,380,116,380,133c0,4-32-6-72-23-39-16-117-43-172-59-404-120-897-56-1260,164l-103,63-39-32Z"/><path d="M1420,846c0-2,8-10,18-17c15-13,16-12,3,4s-21,21-21,13Z"/><path d="M1470,806c0-2,8-10,18-17c15-13,16-12,3,4s-21,21-21,13Z"/></g><text dx="0" dy="0" font-family="&quot;RETRO&quot;" font-size="38.4" font-weight="400" transform="matrix(15.453315 0 0 15.707178 476.232908 459.246913)" stroke-width="0"><tspan y="0" font-weight="400" stroke-width="0"><![CDATA[
PHERE
]]></tspan><tspan x="0" y="76.8" font-weight="400" stroke-width="0"><![CDATA[
 
]]></tspan></text></svg>
